<svg width="17" height="33" viewBox="0 0 17 33" fill="none" xmlns="http://www.w3.org/2000/svg">
<path id="Vector" d="M2.41243 32.9957C1.84975 32.9968 1.30445 32.8054 0.871186 32.4548C0.627336 32.2574 0.425767 32.0149 0.27802 31.7412C0.130272 31.4676 0.0392518 31.1682 0.0101708 30.8601C-0.0189102 30.5521 0.0145204 30.2415 0.108547 29.946C0.202573 29.6506 0.355347 29.3762 0.558121 29.1386L11.3468 16.5323L0.943433 3.90241C0.743394 3.66183 0.59401 3.38502 0.503868 3.08788C0.413725 2.79074 0.384601 2.47913 0.418169 2.17096C0.451737 1.86279 0.547335 1.56414 0.699469 1.29217C0.851604 1.0202 1.05728 0.780275 1.30466 0.586188C1.55383 0.372077 1.84562 0.210576 2.16172 0.111821C2.47782 0.0130656 2.81142 -0.0208109 3.14157 0.0123158C3.47171 0.0454424 3.79128 0.144858 4.08022 0.304323C4.36916 0.463788 4.62123 0.679859 4.82062 0.938977L16.4522 15.0505C16.8064 15.4714 17 15.9992 17 16.544C17 17.0888 16.8064 17.6167 16.4522 18.0375L4.41122 32.149C4.16964 32.4337 3.86276 32.6587 3.51547 32.8058C3.16819 32.9529 2.79029 33.018 2.41243 32.9957Z" fill="#D9D9D9"/>
</svg>
