<?xml version="1.0" encoding="UTF-8"?><svg id="Layer_1" xmlns="http://www.w3.org/2000/svg" xmlns:xlink="http://www.w3.org/1999/xlink" viewBox="0 0 1694.93 584.08"><defs><style>.cls-1{fill:url(#linear-gradient);}.cls-1,.cls-2,.cls-3,.cls-4,.cls-5{stroke-width:0px;}.cls-2{fill:url(#linear-gradient-4);}.cls-3{fill:url(#linear-gradient-2);}.cls-4{fill:url(#linear-gradient-3);}.cls-5{fill:#0c0ec8;}</style><linearGradient id="linear-gradient" x1="279.63" y1="159.31" x2="278.71" y2="1.3" gradientUnits="userSpaceOnUse"><stop offset="0" stop-color="#9864fd"/><stop offset=".97" stop-color="#fd709e"/></linearGradient><linearGradient id="linear-gradient-2" x1="20.33" y1="261.96" x2="296.73" y2="261.96" gradientUnits="userSpaceOnUse"><stop offset="0" stop-color="#3dccf3"/><stop offset=".17" stop-color="#51afed"/><stop offset=".52" stop-color="#8568df"/><stop offset="1" stop-color="#d200cb"/></linearGradient><linearGradient id="linear-gradient-3" x1="277.51" y1="400.58" x2="279.29" y2="558.83" gradientUnits="userSpaceOnUse"><stop offset=".02" stop-color="#9864fd"/><stop offset=".26" stop-color="#ab66ea"/><stop offset=".74" stop-color="#de6cba"/><stop offset="1" stop-color="#fd709e"/></linearGradient><linearGradient id="linear-gradient-4" x1="193.91" y1="289.3" x2="534.27" y2="289.3" gradientUnits="userSpaceOnUse"><stop offset="0" stop-color="#d200cb"/><stop offset=".41" stop-color="#9059dc"/><stop offset=".82" stop-color="#54abec"/><stop offset="1" stop-color="#3dccf3"/></linearGradient></defs><path class="cls-5" d="M688.12,319.51v-105.98c0-8.76,6.66-15.42,16.94-15.42,6.66,0,12.37,3.81,16.17,9.52l51.37,78.97v-74.02c0-8.19,5.52-14.47,12.75-14.47,7.61,0,13.51,6.28,13.51,14.47v101.42c0,10.85-6.85,19.98-16.36,19.98-7.23,0-13.7-3.8-17.51-9.51l-50.62-75.54v70.59c0,7.99-5.71,14.46-13.13,14.46s-13.13-6.47-13.13-14.46Z"/><path class="cls-5" d="M839.05,331.69c-7.42,0-13.51-6.47-13.51-14.46v-102.37c0-8.19,6.09-14.46,13.51-14.46h62.23c7.8,0,14.08,6.65,14.08,14.84s-6.28,14.65-14.08,14.65h-49.48v21.69l30.45-1.52c4.76-.19,8.19-.39,10.66-.39,7.42,0,12.74,5.9,12.74,13.13s-5.52,13.32-12.94,13.32c-2.28,0-5.52-.19-10.47-.38l-30.45-1.14v27.78h51.76c7.61,0,14.08,6.47,14.08,14.84s-6.47,14.46-14.08,14.46h-64.51Z"/><path class="cls-5" d="M931.94,310.76l35.96-48.33-31.21-42.05c-7.04-10.09-1.33-22.27,10.66-22.27,4.94,0,9.13,3.43,12.36,7.99l25.31,36.35,22.83-35.96c3.81-5.52,8.56-8.19,13.52-8.19,13.13,0,16.93,12.75,9.7,22.45l-30.64,41.87,34.82,48.33c6.85,10.27.76,23.02-10.47,23.02-6.09,0-9.51-3.42-12.75-7.99l-28.73-42.05-27.97,41.87c-3.24,4.56-6.85,7.99-12.75,7.99-11.04,0-18.08-13.13-10.65-23.03Z"/><path class="cls-5" d="M1078.67,320.84v-90.95h-19.79c-8.18,0-14.84-6.66-14.84-14.65s6.66-14.84,14.84-14.84h66.04c8.18,0,14.65,6.65,14.65,14.84s-6.47,14.65-14.65,14.65h-19.98v90.95c0,7.23-5.71,13.13-13.13,13.13s-13.13-5.9-13.13-13.13Z"/><path class="cls-5" d="M1208.29,290.4c-7.42,0-13.51-6.47-13.51-14.46s6.09-14.65,13.51-14.65h84.11c7.42,0,13.51,6.47,13.51,14.65s-6.09,14.46-13.51,14.46h-84.11Z"/><path class="cls-5" d="M1371.59,319.51v-106.93c0-9.52,6.47-14.47,13.13-14.47s13.13,4.95,13.13,14.47v106.93c0,9.52-6.47,14.46-13.13,14.46s-13.13-4.94-13.13-14.46Z"/><path class="cls-5" d="M1438.01,331.69c-7.42,0-13.51-6.47-13.51-14.46v-102.37c0-8.19,6.09-14.46,13.51-14.46h35.39c44.72,0,64.51,30.06,64.51,65.46s-19.6,65.83-64.51,65.83h-35.39ZM1450.95,302.39h22.45c22.27,0,38.06-9.52,38.06-36.53s-15.22-36.16-37.87-36.16h-22.65v72.69Z"/><path class="cls-5" d="M1554.31,266.04c0-42.62,26.45-67.93,65.08-67.93s65.08,25.31,65.08,67.93-26.45,67.93-65.08,67.93-65.08-25.31-65.08-67.93ZM1657.44,266.04c0-25.11-12.94-39.38-38.06-39.38s-38.06,14.27-38.06,39.38,12.94,39.39,38.06,39.39,38.06-14.27,38.06-39.39Z"/><path class="cls-1" d="M232.02,120.82c13.21,7.32,29.27,10.98,48.2,10.98s34.99-3.66,48.2-10.98c12.06-6.68,21.94-15.48,29.84-26.21l-61.81-61.81c-10.19-10.19-26.72-10.19-36.92,0l-59.29,59.29c8.16,11.93,18.74,21.52,31.78,28.74Z"/><path class="cls-3" d="M298.09,201.24c-5.83.43-11.77.7-17.88.7-29.27,0-55.6-5.08-78.99-15.26-22.09-9.61-40.8-22.77-56.36-39.24l-115.54,115.54c-10.19,10.19-10.19,26.72,0,36.92l76.57,76.57,192.18-175.23Z"/><path class="cls-4" d="M296.44,530.08l60.98-60.98c-8.03-11.4-18.21-20.64-30.7-27.57-13.21-7.31-29.27-10.98-48.2-10.98s-34.99,3.67-48.2,10.98c-12.73,7.06-23.08,16.48-31.16,28.18l60.36,60.36c10.19,10.19,26.72,10.19,36.92,0Z"/><path class="cls-2" d="M526.62,262.98l-98.39-98.39-234.32,213.65c1.9-.92,3.67-1.97,5.62-2.84,23.38-10.35,49.71-15.53,78.99-15.53s56.04,5.18,79.25,15.53c21.31,9.51,39.46,22.49,54.74,38.61l114.12-114.12c10.19-10.19,10.19-26.72,0-36.92Z"/></svg>