<svg width="134" height="148" viewBox="0 0 134 148" fill="none" xmlns="http://www.w3.org/2000/svg">
<path id="Vector" d="M133.988 45.2229C133.988 44.1877 133.821 43.1441 133.637 42.126C133.255 40.0174 132.184 38.1899 131.13 36.3625C129.763 33.9855 127.907 32.0814 125.529 30.7097C125.182 30.5095 124.835 30.3093 124.483 30.1091V29.7342H123.828C117.357 26.0112 110.882 22.3009 104.407 18.5906C96.2519 13.9134 88.097 9.24036 79.9379 4.56736C78.0866 3.50667 76.2568 2.40764 74.3585 1.44067C71.7059 0.0903137 68.8262 -0.0545196 65.9036 0.0136371C63.2982 0.0775341 60.8427 0.661126 58.5844 1.9561C50.9566 6.32666 43.3374 10.7142 35.7182 15.0933C27.242 19.9665 18.7828 24.8738 10.268 29.6831C7.06264 31.4935 4.38435 33.6916 2.55883 36.9631C0.896144 39.9492 -0.0251875 43.0163 0.000524055 46.454C0.0733736 55.6509 0.0262354 64.8478 0.0262354 74.0447C0.0262354 83.3225 0.0562327 92.5961 0.00909478 101.874C-0.00804628 105.009 0.750445 107.867 2.276 110.611C3.87012 113.465 5.87991 115.867 8.74675 117.512C11.3865 119.024 14.0219 120.536 16.6616 122.048C30.2031 129.797 43.7445 137.545 57.2817 145.303C59.0001 146.287 60.727 147.219 62.6897 147.667C64.4123 148.059 66.1522 147.978 67.892 147.999C70.566 148.029 73.0729 147.39 75.3869 146.065C82.929 141.746 90.4625 137.405 97.996 133.073C106.455 128.212 114.923 123.352 123.378 118.483C125.002 117.546 126.677 116.694 128.079 115.407C130.071 113.58 131.352 111.275 132.552 108.924C133.542 106.981 133.996 104.89 133.996 102.713C134.001 83.5525 134.005 64.3877 133.984 45.2271L133.988 45.2229ZM74.457 129.469V129.06H75.2198C75.1384 129.107 75.0527 129.154 74.9712 129.201C74.8384 129.277 74.7013 129.341 74.457 129.465V129.469Z" fill="#EAE9E9"/>
</svg>
